<svg xmlns="http://www.w3.org/2000/svg" viewBox="0 0 1150 333"><defs></defs>
  <g transform="translate(160 166.5) scale(1.5)">
    <circle r="96" fill="none" stroke="#FFF8E7" stroke-width="3"/>
    <circle r="89" fill="none" stroke="#FFF8E7" stroke-width="1.2"/>
    <path d="M44.00 0.00L84.00 0.00M43.62 5.74L71.38 9.40M42.50 11.39L81.14 21.74M40.65 16.84L66.52 27.55M38.11 22.00L72.75 42.00M34.91 26.79L57.12 43.83M31.11 31.11L59.40 59.40M26.79 34.91L43.83 57.12M22.00 38.11L42.00 72.75M16.84 40.65L27.55 66.52M11.39 42.50L21.74 81.14M5.74 43.62L9.40 71.38M0.00 44.00L0.00 84.00M-5.74 43.62L-9.40 71.38M-11.39 42.50L-21.74 81.14M-16.84 40.65L-27.55 66.52M-22.00 38.11L-42.00 72.75M-26.79 34.91L-43.83 57.12M-31.11 31.11L-59.40 59.40M-34.91 26.79L-57.12 43.83M-38.11 22.00L-72.75 42.00M-40.65 16.84L-66.52 27.55M-42.50 11.39L-81.14 21.74M-43.62 5.74L-71.38 9.40M-44.00 0.00L-84.00 0.00M-43.62 -5.74L-71.38 -9.40M-42.50 -11.39L-81.14 -21.74M-40.65 -16.84L-66.52 -27.55M-38.11 -22.00L-72.75 -42.00M-34.91 -26.79L-57.12 -43.83M-31.11 -31.11L-59.40 -59.40M-26.79 -34.91L-43.83 -57.12M-22.00 -38.11L-42.00 -72.75M-16.84 -40.65L-27.55 -66.52M-11.39 -42.50L-21.74 -81.14M-5.74 -43.62L-9.40 -71.38M-0.00 -44.00L-0.00 -84.00M5.74 -43.62L9.40 -71.38M11.39 -42.50L21.74 -81.14M16.84 -40.65L27.55 -66.52M22.00 -38.11L42.00 -72.75M26.79 -34.91L43.83 -57.12M31.11 -31.11L59.40 -59.40M34.91 -26.79L57.12 -43.83M38.11 -22.00L72.75 -42.00M40.65 -16.84L66.52 -27.55M42.50 -11.39L81.14 -21.74M43.62 -5.74L71.38 -9.40" stroke="#FFF8E7" stroke-width="1.6" stroke-linecap="round" opacity=".85"/>
    <path d="M28.28 -28.28 Q8.00 0.00 28.28 28.28 Q0.00 8.00 -28.28 28.28 Q-8.00 0.00 -28.28 -28.28 Q-0.00 -8.00 28.28 -28.28Z" fill="#FFF8E7" opacity=".55"/>
    <path d="M0.00 -70.00 Q7.42 -7.42 70.00 0.00 Q7.42 7.42 0.00 70.00 Q-7.42 7.42 -70.00 0.00 Q-7.42 -7.42 0.00 -70.00Z" fill="#FFF8E7"/>
    <path d="M-52.00 -61.00 Q-50.60 -51.40 -41.00 -50.00 Q-50.60 -48.60 -52.00 -39.00 Q-53.40 -48.60 -63.00 -50.00 Q-53.40 -51.40 -52.00 -61.00Z" fill="#FFF8E7"/>
    <path d="M54.00 40.00 Q55.02 46.98 62.00 48.00 Q55.02 49.02 54.00 56.00 Q52.98 49.02 46.00 48.00 Q52.98 46.98 54.00 40.00Z" fill="#FFF8E7"/>
    <path d="M58.00 -45.00 Q58.71 -40.71 63.00 -40.00 Q58.71 -39.29 58.00 -35.00 Q57.29 -39.29 53.00 -40.00 Q57.29 -40.71 58.00 -45.00Z" fill="#FFF8E7"/></g>
  <g fill="#FFF8E7"><path transform="translate(366.69 119.85)" d="M11.80-77.20L34.41-77.20L34.41 0L11.80 0L11.80-77.20ZM34.08-5.62L63.09-5.62L67.50 0L34.08 0L34.08-5.62ZM34.08-40.81L59.45-40.81L59.45-35.29L34.08-35.29L34.08-40.81ZM34.08-77.20L65.29-77.20L65.29-71.58L34.08-71.58L34.08-77.20ZM70.92-25.59L72.02-25.59L67.83 0L44.01 0L47.98-5.62Q53.27-5.62 57.85-8.00Q62.42-10.37 65.84-14.83Q69.26-19.30 70.92-25.59L70.92-25.59ZM46.43-35.51L59.45-35.51L59.45-22.72L58.34-22.72L58.34-23.27Q58.34-28.45 54.98-31.82Q51.62-35.18 46.43-35.29L46.43-35.29L46.43-35.51ZM58.34-53.38L59.45-53.38L59.45-40.59L46.43-40.59L46.43-40.81Q51.62-40.92 55.03-44.34Q58.45-47.76 58.34-52.94L58.34-52.94L58.34-53.38ZM49.96-71.91L65.29-71.91L65.29-56.47L64.19-56.47L64.19-57.35Q64.19-63.97 60.44-67.77Q56.69-71.58 49.96-71.69L49.96-71.69L49.96-71.91ZM65.29-79.19L65.29-79.19L65.29-75.99L51.84-77.20Q54.26-77.20 56.96-77.53Q59.67-77.86 61.98-78.31Q64.30-78.75 65.29-79.19ZM11.80-8.05L12.13-8.05L12.13 0L3.31 0L3.31-1.10Q3.31-1.10 4.03-1.10Q4.74-1.10 4.74-1.10L4.74-1.10Q7.61-1.10 9.65-3.14Q11.69-5.18 11.80-8.05L11.80-8.05ZM12.13-77.20L12.13-69.15L11.80-69.15Q11.69-72.02 9.65-74.06Q7.61-76.10 4.74-76.10L4.74-76.10Q4.74-76.10 4.03-76.10Q3.31-76.10 3.31-76.10L3.31-76.10L3.31-77.20L12.13-77.20ZM91.98-77.20L114.59-77.20L114.59 0L91.98 0L91.98-77.20ZM114.26-5.62L143.27-5.62L147.68 0L114.26 0L114.26-5.62ZM151.10-25.59L152.20-25.59L148.01 0L124.19 0L128.16-5.62Q133.45-5.62 138.03-8.00Q142.60-10.37 146.02-14.83Q149.44-19.30 151.10-25.59L151.10-25.59ZM91.98-8.05L92.31-8.05L92.31 0L83.49 0L83.49-1.10Q83.49-1.10 84.21-1.10Q84.92-1.10 84.92-1.10L84.92-1.10Q87.79-1.10 89.83-3.14Q91.87-5.18 91.98-8.05L91.98-8.05ZM92.31-77.20L92.31-69.15L91.98-69.15Q91.87-72.02 89.83-74.06Q87.79-76.10 84.92-76.10L84.92-76.10Q84.92-76.10 84.21-76.10Q83.49-76.10 83.49-76.10L83.49-76.10L83.49-77.20L92.31-77.20ZM114.59-69.15L114.26-69.15L114.26-77.20L123.08-77.20L123.08-76.10Q122.97-76.10 122.31-76.10Q121.65-76.10 121.65-76.10L121.65-76.10Q118.78-76.10 116.74-74.06Q114.70-72.02 114.59-69.15L114.59-69.15ZM208.78-77.20L238.00-77.20Q251.79-77.20 261.66-72.63Q271.53-68.05 276.77-59.39Q282.01-50.73 282.01-38.60L282.01-38.60Q282.01-26.47 276.77-17.81Q271.53-9.15 261.66-4.58Q251.79 0 238.00 0L238.00 0L209.99 0L209.88-5.51Q215.17-5.51 219.36-5.51Q223.56-5.51 226.64-5.51Q229.73-5.51 231.77-5.51Q233.81-5.51 234.80-5.51Q235.80-5.51 235.80-5.51L235.80-5.51Q242.75-5.51 247.65-9.48Q252.56-13.46 255.15-20.84Q257.74-28.23 257.74-38.60L257.74-38.60Q257.74-48.97 255.15-56.36Q252.56-63.75 247.65-67.72Q242.75-71.69 235.80-71.69L235.80-71.69Q235.80-71.69 234.75-71.69Q233.70-71.69 231.55-71.69Q229.40-71.69 226.20-71.69Q223.00-71.69 218.65-71.69Q214.29-71.69 208.78-71.69L208.78-71.69L208.78-77.20ZM204.70-77.20L227.31-77.20L227.31 0L204.70 0L204.70-77.20ZM204.70-8.05L205.03-8.05L205.03 0L196.20 0L196.20-1.10Q196.20-1.10 196.92-1.10Q197.64-1.10 197.64-1.10L197.64-1.10Q200.51-1.10 202.55-3.14Q204.59-5.18 204.70-8.05L204.70-8.05ZM205.03-77.20L205.03-69.15L204.70-69.15Q204.70-72.02 202.60-74.06Q200.51-76.10 197.64-76.10L197.64-76.10Q197.64-76.10 196.98-76.10Q196.31-76.10 196.31-76.10L196.31-76.10L196.20-77.20L205.03-77.20ZM301.97-77.20L324.58-77.20L324.58 0L301.97 0L301.97-77.20ZM324.25-5.62L353.25-5.62L357.67 0L324.25 0L324.25-5.62ZM324.25-40.81L349.62-40.81L349.62-35.29L324.25-35.29L324.25-40.81ZM324.25-77.20L355.46-77.20L355.46-71.58L324.25-71.58L324.25-77.20ZM361.09-25.59L362.19-25.59L358.00 0L334.18 0L338.15-5.62Q343.44-5.62 348.02-8.00Q352.59-10.37 356.01-14.83Q359.43-19.30 361.09-25.59L361.09-25.59ZM336.60-35.51L349.62-35.51L349.62-22.72L348.51-22.72L348.51-23.27Q348.51-28.45 345.15-31.82Q341.78-35.18 336.60-35.29L336.60-35.29L336.60-35.51ZM348.51-53.38L349.62-53.38L349.62-40.59L336.60-40.59L336.60-40.81Q341.78-40.92 345.20-44.34Q348.62-47.76 348.51-52.94L348.51-52.94L348.51-53.38ZM340.13-71.91L355.46-71.91L355.46-56.47L354.36-56.47L354.36-57.35Q354.36-63.97 350.61-67.77Q346.86-71.58 340.13-71.69L340.13-71.69L340.13-71.91ZM355.46-79.19L355.46-79.19L355.46-75.99L342.01-77.20Q344.43-77.20 347.13-77.53Q349.84-77.86 352.15-78.31Q354.47-78.75 355.46-79.19ZM301.97-8.05L302.30-8.05L302.30 0L293.48 0L293.48-1.10Q293.48-1.10 294.20-1.10Q294.91-1.10 294.91-1.10L294.91-1.10Q297.78-1.10 299.82-3.14Q301.86-5.18 301.97-8.05L301.97-8.05ZM302.30-77.20L302.30-69.15L301.97-69.15Q301.86-72.02 299.82-74.06Q297.78-76.10 294.91-76.10L294.91-76.10Q294.91-76.10 294.20-76.10Q293.48-76.10 293.48-76.10L293.48-76.10L293.48-77.20L302.30-77.20ZM402.77-78.75L402.77-78.75Q405.20-78.75 409.28-78.53Q413.36-78.31 417.77-77.92Q422.19-77.53 425.49-77.15Q428.80-76.76 429.80-76.32L429.80-76.32L427.59-59.67L426.49-59.67Q426.49-65.73 421.80-69.48Q417.11-73.23 408.95-73.23L408.95-73.23Q402.22-73.23 398.25-70.64Q394.28-68.05 393.95-63.97L393.95-63.97Q393.62-60.00 396.65-57.79Q399.69-55.59 403.77-53.71L403.77-53.71L424.39-44.12Q430.57-41.36 434.10-36.06Q437.63-30.77 437.07-22.72L437.07-22.72Q436.30-10.92 427.20-4.69Q418.10 1.54 402.44 1.54L402.44 1.54Q396.05 1.54 390.86 0.55Q385.68-0.44 381.99-2.04Q378.29-3.64 376.31-5.62L376.31-5.62Q375.09-8.38 375.31-12.35Q375.53-16.32 376.80-20.24Q378.07-24.15 379.83-26.47L379.83-26.47L380.83-26.47Q380.50-20.73 383.25-15.55Q386.01-10.37 391.53-7.17Q397.04-3.97 404.76-3.97L404.76-3.97Q412.70-3.97 416.51-7.28Q420.31-10.59 420.31-14.78L420.31-14.78Q420.31-18.31 417.61-21.18Q414.91-24.04 408.62-26.91L408.62-26.91L390.64-35.29Q383.03-38.82 379.56-45.00Q376.08-51.17 377.08-59.00L377.08-59.00Q377.85-65.40 381.16-69.81Q384.47-74.22 389.93-76.49Q395.39-78.75 402.77-78.75ZM413.69-77.64L430.02-77.64L429.69-75.33L413.69-75.33L413.69-77.64ZM475.34-76.87L497.95-76.87L497.95 0L475.34 0L475.34-76.87ZM449.21-77.31L524.09-77.31L524.09-71.80L449.21-71.80L449.21-77.31ZM508.76-72.13L524.09-72.13L524.09-56.58L522.99-56.69L522.99-57.46Q522.99-64.08 519.24-67.88Q515.49-71.69 508.76-71.80L508.76-71.80L508.76-72.13ZM524.09-79.30L524.09-79.30L524.09-76.10L510.64-77.31Q513.06-77.31 515.77-77.64Q518.47-77.97 520.78-78.42Q523.10-78.86 524.09-79.30ZM475.34-8.05L475.68-8.05L475.68 0L466.85 0L466.85-1.10Q466.85-1.10 467.57-1.10Q468.29-1.10 468.29-1.10L468.29-1.10Q471.15-1.10 473.19-3.14Q475.23-5.18 475.34-8.05L475.34-8.05ZM497.62 0L497.62-8.05L497.95-8.05Q498.06-5.18 500.10-3.14Q502.14-1.10 505.01-1.10L505.01-1.10Q505.01-1.10 505.73-1.10Q506.45-1.10 506.45-1.10L506.45-1.10L506.45 0L497.62 0ZM449.21-72.13L464.54-72.13L464.54-71.80Q457.81-71.69 454.06-67.88Q450.31-64.08 450.31-57.46L450.31-57.46L450.31-56.69L449.21-56.58L449.21-72.13ZM449.21-76.10L449.21-79.30Q450.31-78.86 452.57-78.42Q454.83-77.97 457.59-77.64Q460.35-77.31 462.66-77.31L462.66-77.31L449.21-76.10ZM549.79-51.62L559.38-79.85L597.54-0.66L571.08-0.66L549.79-51.62ZM526.96-8.05L535.67-8.05Q534.68-5.85 535.23-4.30Q535.78-2.76 537.16-1.93Q538.54-1.10 539.86-1.10L539.86-1.10L540.86-1.10L540.86 0L516.26 0L516.26-1.10Q516.26-1.10 516.76-1.10Q517.25-1.10 517.25-1.10L517.25-1.10Q519.79-1.10 522.49-2.70Q525.20-4.30 526.96-8.05L526.96-8.05ZM558.39-79.85L559.38-79.85L559.38-62.64L532.25-0.33L523.32-0.33L552.11-63.42Q552.66-64.41 553.59-66.56Q554.53-68.71 555.58-71.25Q556.63-73.78 557.45-76.10Q558.28-78.42 558.39-79.85L558.39-79.85ZM537.22-23.82L568.43-23.82L568.43-18.31L537.22-18.31L537.22-23.82ZM567.88-8.05L567.88-8.05L593.91-8.05Q595.78-4.30 598.43-2.70Q601.07-1.10 603.61-1.10L603.61-1.10Q603.61-1.10 604.05-1.10Q604.49-1.10 604.49-1.10L604.49-1.10L604.49 0L562.69 0L562.69-1.10L563.69-1.10Q565.89-1.10 567.60-2.92Q569.31-4.74 567.88-8.05ZM640.23-77.20L640.23-77.20L652.58-77.20Q663.61-77.20 670.11-74.28Q676.62-71.36 679.65-66.61Q682.69-61.87 683.02-56.14L683.02-56.14Q683.35-50.07 681.20-45.11Q679.05-40.15 675.13-36.84Q671.22-33.53 666.25-32.15Q661.29-30.77 655.89-31.71Q650.48-32.65 645.41-36.29L645.41-36.29L645.41-37.39Q645.41-37.39 646.46-37.55Q647.51-37.72 649.16-38.38Q650.81-39.04 652.63-40.37Q654.45-41.69 656.11-44.17Q657.76-46.65 658.64-50.40L658.64-50.40Q659.09-52.06 659.25-53.82Q659.42-55.59 659.31-57.02L659.31-57.02Q659.09-63.75 655.50-67.72Q651.92-71.69 645.52-71.69L645.52-71.69L641.33-71.69Q641.33-71.69 641.05-73.07Q640.78-74.44 640.50-75.82Q640.23-77.20 640.23-77.20ZM619.05-77.20L641.66-77.20L641.66 0L619.05 0L619.05-77.20ZM619.05-8.05L619.38-8.05L619.38 0L610.56 0L610.56-1.10Q610.78-1.10 611.33-1.10Q611.88-1.10 611.99-1.10L611.99-1.10Q614.86-1.10 616.90-3.14Q618.94-5.18 619.05-8.05L619.05-8.05ZM619.38-77.20L619.38-69.15L619.05-69.15Q619.05-72.02 616.96-74.06Q614.86-76.10 611.99-76.10L611.99-76.10Q611.88-76.10 611.39-76.10Q610.89-76.10 610.67-76.10L610.67-76.10L610.56-77.20L619.38-77.20ZM641.33 0L641.33-8.05L641.66-8.05Q641.77-5.18 643.81-3.14Q645.85-1.10 648.72-1.10L648.72-1.10Q648.94-1.10 649.49-1.10Q650.04-1.10 650.15-1.10L650.15-1.10L650.15 0L641.33 0ZM703.09-77.20L725.70-77.20L725.70 0L703.09 0L703.09-77.20ZM725.37-5.62L754.38-5.62L758.79 0L725.37 0L725.37-5.62ZM725.37-40.81L750.74-40.81L750.74-35.29L725.37-35.29L725.37-40.81ZM725.37-77.20L756.58-77.20L756.58-71.58L725.37-71.58L725.37-77.20ZM762.21-25.59L763.31-25.59L759.12 0L735.30 0L739.27-5.62Q744.56-5.62 749.14-8.00Q753.71-10.37 757.13-14.83Q760.55-19.30 762.21-25.59L762.21-25.59ZM737.72-35.51L750.74-35.51L750.74-22.72L749.63-22.72L749.63-23.27Q749.63-28.45 746.27-31.82Q742.91-35.18 737.72-35.29L737.72-35.29L737.72-35.51ZM749.63-53.38L750.74-53.38L750.74-40.59L737.72-40.59L737.72-40.81Q742.91-40.92 746.32-44.34Q749.74-47.76 749.63-52.94L749.63-52.94L749.63-53.38ZM741.25-71.91L756.58-71.91L756.58-56.47L755.48-56.47L755.48-57.35Q755.48-63.97 751.73-67.77Q747.98-71.58 741.25-71.69L741.25-71.69L741.25-71.91ZM756.58-79.19L756.58-79.19L756.58-75.99L743.13-77.20Q745.55-77.20 748.25-77.53Q750.96-77.86 753.27-78.31Q755.59-78.75 756.58-79.19ZM703.09-8.05L703.42-8.05L703.42 0L694.60 0L694.60-1.10Q694.60-1.10 695.32-1.10Q696.03-1.10 696.03-1.10L696.03-1.10Q698.90-1.10 700.94-3.14Q702.98-5.18 703.09-8.05L703.09-8.05ZM703.42-77.20L703.42-69.15L703.09-69.15Q702.98-72.02 700.94-74.06Q698.90-76.10 696.03-76.10L696.03-76.10Q696.03-76.10 695.32-76.10Q694.60-76.10 694.60-76.10L694.60-76.10L694.60-77.20L703.42-77.20Z"/><path transform="translate(686.95 186.38)" d="M6.63 0.81L6.63 0.81Q5.02 0.81 3.66-0.03Q2.29-0.87 1.64-2.76Q0.99-4.65 1.49-7.81L1.49-7.81Q2.11-11.22 3.81-14.26Q5.52-17.30 7.91-19.65Q10.29-22.01 12.96-23.37Q15.62-24.74 18.23-24.74L18.23-24.74Q20.21-24.74 21.76-23.75Q23.31-22.75 23.44-20.58L23.44-20.58L20.52-15.25Q18.66-10.60 16.46-6.97Q14.26-3.35 11.78-1.27Q9.30 0.81 6.63 0.81ZM9.36-3.10L9.36-3.10Q11.16-3.10 12.87-4.53Q14.57-5.95 15.96-8.09Q17.36-10.23 18.29-12.52Q19.22-14.82 19.47-16.49L19.47-16.49Q19.96-19.22 18.63-20.61Q17.30-22.01 15.25-22.01L15.25-22.01Q11.97-21.95 9.58-19.07Q7.19-16.18 6.26-10.85L6.26-10.85Q5.64-6.82 6.51-4.96Q7.38-3.10 9.36-3.10ZM19.84 0.56L19.84 0.56Q17.92 0.56 17.42-0.93Q16.93-2.42 17.42-5.52L17.42-5.52L23.31-37.14Q23.81-39.87 22.97-40.49Q22.13-41.11 19.47-39.80L19.47-39.80Q19.22-39.68 19.10-40.05Q18.97-40.42 19.22-40.49L19.22-40.49L28.27-44.95Q28.58-45.07 28.83-44.83Q29.08-44.58 29.02-44.45L29.02-44.45L21.95-5.52Q21.64-3.72 21.95-3.04Q22.26-2.36 22.82-2.36L22.82-2.36Q23.50-2.36 24.40-3.04Q25.30-3.72 26.41-4.77L26.41-4.77Q26.60-5.02 26.88-4.77Q27.16-4.53 26.91-4.28L26.91-4.28Q24.92-1.98 23.25-0.71Q21.58 0.56 19.84 0.56ZM37.57 0.74L37.57 0.74Q34.10 0.74 32.12-1.02Q30.13-2.79 29.54-5.58Q28.95-8.37 29.57-11.47L29.57-11.47Q30.01-13.83 31.31-16.21Q32.61-18.60 34.56-20.52Q36.52-22.44 39.00-23.59Q41.48-24.74 44.33-24.74L44.33-24.74Q46.75-24.74 47.96-23.87Q49.17-23.00 48.98-21.39L48.98-21.39Q48.79-19.84 47.34-18.38Q45.88-16.93 43.49-15.78Q41.11-14.63 38.19-13.83Q35.28-13.02 32.18-12.65L32.18-12.65L32.30-13.45Q36.83-14.14 39.90-15.72Q42.97-17.30 43.46-20.09L43.46-20.09Q43.77-21.58 43.09-22.32Q42.41-23.06 41.23-23.06L41.23-23.06Q39.62-23.06 38.32-21.79Q37.01-20.52 36.12-18.35Q35.22-16.18 34.78-13.52L34.78-13.52Q34.22-10.23 34.69-7.59Q35.15-4.96 36.70-3.38Q38.25-1.80 40.80-1.80L40.80-1.80Q42.10-1.80 43.65-2.23Q45.20-2.67 46.62-3.72L46.62-3.72Q46.75-3.84 46.97-3.60Q47.18-3.35 47.06-3.22L47.06-3.22Q44.70-1.05 42.28-0.15Q39.87 0.74 37.57 0.74ZM69.87 0.56L69.87 0.56Q67.95 0.56 67.42-0.93Q66.90-2.42 67.46-5.52L67.46-5.52L73.28-37.14Q73.78-39.87 72.97-40.49Q72.17-41.11 69.50-39.80L69.50-39.80Q69.25-39.68 69.13-40.05Q69.01-40.42 69.25-40.49L69.25-40.49L78.31-44.95Q78.62-45.07 78.86-44.83Q79.11-44.58 79.05-44.45L79.05-44.45L72.04-5.52Q71.61-3.72 71.95-3.04Q72.29-2.36 72.85-2.36L72.85-2.36Q73.53-2.36 74.43-3.04Q75.33-3.72 76.38-4.77L76.38-4.77Q76.63-5.02 76.88-4.77Q77.13-4.53 76.88-4.28L76.88-4.28Q74.96-1.98 73.28-0.71Q71.61 0.56 69.87 0.56ZM84.32 0.81L84.32 0.81Q82.27 0.81 81.10-0.71Q79.92-2.23 80.41-5.64L80.41-5.64Q80.85-8.87 82.55-12.21Q84.26-15.56 86.71-18.41Q89.16-21.27 91.95-23.00Q94.74-24.74 97.28-24.74L97.28-24.74Q98.46-24.74 99.70-24.30Q100.94-23.87 101.83-22.85Q102.73-21.82 102.86-20.21L102.86-20.21L99.51-22.13Q100.44-22.26 101.56-23.13Q102.67-23.99 103.29-25.23L103.29-25.23Q103.42-25.42 103.76-25.33Q104.10-25.23 104.04-25.11L104.04-25.11L100.44-5.52Q99.88-2.36 101.25-2.36L101.25-2.36Q101.87-2.36 102.80-3.01Q103.73-3.66 104.84-4.77L104.84-4.77Q105.03-4.96 105.28-4.71Q105.52-4.46 105.34-4.28L105.34-4.28Q103.42-1.98 101.71-0.71Q100.01 0.56 98.39 0.56L98.39 0.56Q96.60 0.56 95.98-0.87Q95.36-2.29 95.85-5.52L95.85-5.52L97.40-14.20L98.64-15.25Q97.03-10.29 94.61-6.70Q92.19-3.10 89.53-1.15Q86.86 0.81 84.32 0.81ZM87.73-3.22L87.73-3.22Q89.28-3.22 90.89-4.46Q92.50-5.70 93.93-7.69Q95.36-9.67 96.38-11.94Q97.40-14.20 97.77-16.18L97.77-16.18Q98.27-18.85 97.37-20.43Q96.47-22.01 94.49-22.01L94.49-22.01Q92.63-21.95 90.74-20.37Q88.85-18.79 87.42-16.09Q85.99-13.39 85.37-9.92L85.37-9.92Q84.82-6.26 85.53-4.74Q86.24-3.22 87.73-3.22ZM113.15 0.68L113.15 0.68Q110.48 0.68 108.62-0.56Q106.76-1.80 107.01-3.60L107.01-3.60Q107.20-4.65 107.91-5.24Q108.62-5.83 109.49-5.83L109.49-5.83Q110.55-5.83 111.13-5.12Q111.72-4.40 112.25-3.50Q112.78-2.60 113.55-1.89Q114.33-1.18 115.69-1.18L115.69-1.18Q116.99-1.18 117.68-1.89Q118.36-2.60 118.61-4.09L118.61-4.09Q118.85-6.08 117.99-7.47Q117.12-8.87 115.66-9.98Q114.20-11.10 112.84-12.28Q111.48-13.45 110.67-14.91Q109.86-16.37 110.24-18.35L110.24-18.35Q110.55-20.03 111.79-21.42Q113.03-22.82 114.95-23.68Q116.87-24.55 119.10-24.55L119.10-24.55Q121.77-24.55 123.38-23.59Q124.99-22.63 124.81-21.08L124.81-21.08Q124.68-19.96 123.91-19.38Q123.13-18.79 122.33-18.79L122.33-18.79Q121.09-18.79 120.50-19.41Q119.91-20.03 119.54-20.86Q119.16-21.70 118.57-22.32Q117.99-22.94 116.62-22.94L116.62-22.94Q115.44-22.94 114.82-22.32Q114.20-21.70 114.02-20.83L114.02-20.83Q113.71-19.03 114.58-17.67Q115.44-16.31 116.90-15.16Q118.36-14.01 119.75-12.77Q121.15-11.53 121.98-10.04Q122.82-8.56 122.51-6.57L122.51-6.57Q122.20-4.96 120.93-3.25Q119.66-1.55 117.68-0.43Q115.69 0.68 113.15 0.68Z"/><path transform="translate(366.52 291.20)" d="M12.42-81.23L36.20-81.23L36.20 0L12.42 0L12.42-81.23ZM35.86-5.92L66.37-5.92L71.01 0L35.86 0L35.86-5.92ZM35.86-42.93L62.54-42.93L62.54-37.13L35.86-37.13L35.86-42.93ZM35.86-81.23L68.69-81.23L68.69-75.31L35.86-75.31L35.86-81.23ZM74.61-26.92L75.77-26.92L71.36 0L46.30 0L50.48-5.92Q56.05-5.92 60.86-8.41Q65.68-10.91 69.27-15.61Q72.87-20.31 74.61-26.92L74.61-26.92ZM48.85-37.36L62.54-37.36L62.54-23.90L61.38-23.90L61.38-24.48Q61.38-29.94 57.84-33.48Q54.30-37.02 48.85-37.13L48.85-37.13L48.85-37.36ZM61.38-56.16L62.54-56.16L62.54-42.70L48.85-42.70L48.85-42.93Q54.30-43.05 57.90-46.65Q61.50-50.24 61.38-55.70L61.38-55.70L61.38-56.16ZM52.56-75.66L68.69-75.66L68.69-59.41L67.53-59.41L67.53-60.34Q67.53-67.30 63.59-71.30Q59.64-75.31 52.56-75.42L52.56-75.42L52.56-75.66ZM68.69-83.31L68.69-83.31L68.69-79.95L54.54-81.23Q57.09-81.23 59.93-81.57Q62.78-81.92 65.21-82.39Q67.65-82.85 68.69-83.31ZM12.42-8.47L12.76-8.47L12.76 0L3.48 0L3.48-1.16Q3.48-1.16 4.24-1.16Q4.99-1.16 4.99-1.16L4.99-1.16Q8.01-1.16 10.15-3.31Q12.30-5.45 12.42-8.47L12.42-8.47ZM12.76-81.23L12.76-72.75L12.42-72.75Q12.30-75.77 10.15-77.92Q8.01-80.07 4.99-80.07L4.99-80.07Q4.99-80.07 4.24-80.07Q3.48-80.07 3.48-80.07L3.48-80.07L3.48-81.23L12.76-81.23ZM118.47-82.85L118.47-82.85Q121.03-82.85 125.32-82.62Q129.61-82.39 134.25-81.98Q138.90-81.57 142.38-81.17Q145.86-80.76 146.90-80.30L146.90-80.30L144.58-62.78L143.42-62.78Q143.42-69.16 138.49-73.10Q133.56-77.05 124.97-77.05L124.97-77.05Q117.89-77.05 113.72-74.32Q109.54-71.59 109.19-67.30L109.19-67.30Q108.84-63.12 112.03-60.80Q115.22-58.48 119.52-56.51L119.52-56.51L141.22-46.41Q147.71-43.51 151.43-37.94Q155.14-32.37 154.56-23.90L154.56-23.90Q153.75-11.49 144.18-4.93Q134.60 1.62 118.12 1.62L118.12 1.62Q111.39 1.62 105.94 0.58Q100.49-0.46 96.60-2.15Q92.71-3.83 90.62-5.92L90.62-5.92Q89.35-8.82 89.58-13.00Q89.81-17.17 91.15-21.29Q92.48-25.41 94.34-27.85L94.34-27.85L95.38-27.85Q95.03-21.81 97.93-16.36Q100.84-10.91 106.64-7.54Q112.44-4.18 120.56-4.18L120.56-4.18Q128.92-4.18 132.92-7.66Q136.92-11.14 136.92-15.55L136.92-15.55Q136.92-19.26 134.08-22.28Q131.24-25.30 124.62-28.31L124.62-28.31L105.71-37.13Q97.70-40.84 94.05-47.34Q90.39-53.84 91.44-62.08L91.44-62.08Q92.25-68.81 95.73-73.45Q99.21-78.09 104.95-80.47Q110.70-82.85 118.47-82.85ZM129.96-81.69L147.13-81.69L146.79-79.25L129.96-79.25L129.96-81.69ZM194.82-80.88L218.61-80.88L218.61 0L194.82 0L194.82-80.88ZM167.32-81.34L246.11-81.34L246.11-75.54L167.32-75.54L167.32-81.34ZM229.98-75.89L246.11-75.89L246.11-59.53L244.95-59.64L244.95-60.45Q244.95-67.42 241.01-71.42Q237.06-75.42 229.98-75.54L229.98-75.54L229.98-75.89ZM246.11-83.43L246.11-83.43L246.11-80.07L231.96-81.34Q234.51-81.34 237.35-81.69Q240.20-82.04 242.63-82.50Q245.07-82.97 246.11-83.43ZM194.82-8.47L195.17-8.47L195.17 0L185.89 0L185.89-1.16Q185.89-1.16 186.64-1.16Q187.40-1.16 187.40-1.16L187.40-1.16Q190.42-1.16 192.56-3.31Q194.71-5.45 194.82-8.47L194.82-8.47ZM218.26 0L218.26-8.47L218.61-8.47Q218.73-5.45 220.88-3.31Q223.02-1.16 226.04-1.16L226.04-1.16Q226.04-1.16 226.79-1.16Q227.55-1.16 227.55-1.16L227.55-1.16L227.55 0L218.26 0ZM167.32-75.89L183.45-75.89L183.45-75.54Q176.38-75.42 172.43-71.42Q168.48-67.42 168.48-60.45L168.48-60.45L168.48-59.64L167.32-59.53L167.32-75.89ZM167.32-80.07L167.32-83.43Q168.48-82.97 170.86-82.50Q173.24-82.04 176.14-81.69Q179.04-81.34 181.48-81.34L181.48-81.34L167.32-80.07ZM289.51-81.23L289.51-81.23L303.55-81.23Q308.77-81.23 314.23-80.30Q319.68-79.37 324.21-76.99Q328.73-74.61 331.52-70.32Q334.30-66.02 334.30-59.29L334.30-59.29Q334.30-54.89 332.68-50.19Q331.05-45.49 327.05-41.95Q323.05-38.41 315.73-37.25L315.73-37.25Q320.61-35.86 324.21-32.49Q327.80-29.13 329.89-25.64L329.89-25.64Q330.12-25.30 331.05-23.67Q331.98-22.05 333.43-19.67Q334.88-17.29 336.51-14.74Q338.13-12.18 339.75-9.98L339.75-9.98Q342.42-6.38 344.40-4.53Q346.37-2.67 348.40-1.97Q350.43-1.28 353.21-1.16L353.21-1.16L353.21 0L338.71 0Q331.75 0 325.83-0.81Q319.91-1.62 315.21-4.41Q310.51-7.19 306.92-13.23L306.92-13.23Q305.64-15.32 304.83-17.41Q304.02-19.49 303.43-21.47Q302.85-23.44 302.45-25.24Q302.04-27.04 301.69-28.72Q301.35-30.40 300.88-31.91L300.88-31.91Q299.72-36.09 298.10-37.60Q296.47-39.10 294.85-39.68L294.85-39.68L294.85-40.84Q295.31-40.84 295.89-40.84Q296.47-40.84 296.70-40.84L296.70-40.84Q299.95-40.84 302.51-42.35Q305.06-43.86 306.80-46.99Q308.54-50.13 309.12-55.12L309.12-55.12Q309.24-56.05 309.35-57.15Q309.47-58.25 309.35-59.87L309.35-59.87Q308.89-68.46 305.12-71.83Q301.35-75.19 296.12-75.19L296.12-75.19Q295.54-75.19 294.62-75.19Q293.69-75.19 292.64-75.19Q291.60-75.19 290.67-75.19L290.67-75.19Q290.67-75.19 290.38-76.70Q290.09-78.21 289.80-79.72Q289.51-81.23 289.51-81.23ZM267.12-81.23L291.02-81.23L291.02 0L267.12 0L267.12-81.23ZM267.12-8.47L267.46-8.47L267.46 0L258.18 0L258.18-1.16Q258.41-1.16 258.99-1.16Q259.57-1.16 259.69-1.16L259.69-1.16Q262.71-1.16 264.85-3.31Q267.00-5.45 267.12-8.47L267.12-8.47ZM267.46-81.23L267.46-72.75L267.12-72.75Q267.00-75.77 264.85-77.92Q262.71-80.07 259.69-80.07L259.69-80.07Q259.57-80.07 258.99-80.07Q258.41-80.07 258.18-80.07L258.18-80.07L258.18-81.23L267.46-81.23ZM290.67 0L290.67-8.47L291.02-8.47Q291.02-5.45 293.22-3.31Q295.43-1.16 298.45-1.16L298.45-1.16Q298.68-1.16 299.20-1.16Q299.72-1.16 299.84-1.16L299.84-1.16L299.84 0L290.67 0ZM365.51-81.23L389.30-81.23L389.30 0L365.51 0L365.51-81.23ZM388.95-5.92L419.47-5.92L424.11 0L388.95 0L388.95-5.92ZM388.95-42.93L415.64-42.93L415.64-37.13L388.95-37.13L388.95-42.93ZM388.95-81.23L421.79-81.23L421.79-75.31L388.95-75.31L388.95-81.23ZM427.71-26.92L428.87-26.92L424.46 0L399.40 0L403.57-5.92Q409.14-5.92 413.96-8.41Q418.77-10.91 422.37-15.61Q425.97-20.31 427.71-26.92L427.71-26.92ZM401.95-37.36L415.64-37.36L415.64-23.90L414.48-23.90L414.48-24.48Q414.48-29.94 410.94-33.48Q407.40-37.02 401.95-37.13L401.95-37.13L401.95-37.36ZM414.48-56.16L415.64-56.16L415.64-42.70L401.95-42.70L401.95-42.93Q407.40-43.05 411.00-46.65Q414.60-50.24 414.48-55.70L414.48-55.70L414.48-56.16ZM405.66-75.66L421.79-75.66L421.79-59.41L420.63-59.41L420.63-60.34Q420.63-67.30 416.69-71.30Q412.74-75.31 405.66-75.42L405.66-75.42L405.66-75.66ZM421.79-83.31L421.79-83.31L421.79-79.95L407.64-81.23Q410.19-81.23 413.03-81.57Q415.87-81.92 418.31-82.39Q420.75-82.85 421.79-83.31ZM365.51-8.47L365.86-8.47L365.86 0L356.58 0L356.58-1.16Q356.58-1.16 357.33-1.16Q358.09-1.16 358.09-1.16L358.09-1.16Q361.10-1.16 363.25-3.31Q365.40-5.45 365.51-8.47L365.51-8.47ZM365.86-81.23L365.86-72.75L365.51-72.75Q365.40-75.77 363.25-77.92Q361.10-80.07 358.09-80.07L358.09-80.07Q358.09-80.07 357.33-80.07Q356.58-80.07 356.58-80.07L356.58-80.07L356.58-81.23L365.86-81.23ZM449.87-81.23L473.66-81.23L473.66 0L449.87 0L449.87-81.23ZM473.31-5.92L503.83-5.92L508.47 0L473.31 0L473.31-5.92ZM512.07-26.92L513.23-26.92L508.82 0L483.76 0L487.93-5.92Q493.50-5.92 498.32-8.41Q503.13-10.91 506.73-15.61Q510.33-20.31 512.07-26.92L512.07-26.92ZM449.87-8.47L450.22-8.47L450.22 0L440.94 0L440.94-1.16Q440.94-1.16 441.69-1.16Q442.45-1.16 442.45-1.16L442.45-1.16Q445.46-1.16 447.61-3.31Q449.76-5.45 449.87-8.47L449.87-8.47ZM450.22-81.23L450.22-72.75L449.87-72.75Q449.76-75.77 447.61-77.92Q445.46-80.07 442.45-80.07L442.45-80.07Q442.45-80.07 441.69-80.07Q440.94-80.07 440.94-80.07L440.94-80.07L440.94-81.23L450.22-81.23ZM473.66-72.75L473.31-72.75L473.31-81.23L482.59-81.23L482.59-80.07Q482.48-80.07 481.78-80.07Q481.09-80.07 481.09-80.07L481.09-80.07Q478.07-80.07 475.92-77.92Q473.78-75.77 473.66-72.75L473.66-72.75ZM532.49-81.23L556.28-81.23L556.28 0L532.49 0L532.49-81.23ZM555.93-5.92L586.45-5.92L591.09 0L555.93 0L555.93-5.92ZM594.69-26.92L595.85-26.92L591.44 0L566.37 0L570.55-5.92Q576.12-5.92 580.94-8.41Q585.75-10.91 589.35-15.61Q592.95-20.31 594.69-26.92L594.69-26.92ZM532.49-8.47L532.84-8.47L532.84 0L523.56 0L523.56-1.16Q523.56-1.16 524.31-1.16Q525.06-1.16 525.06-1.16L525.06-1.16Q528.08-1.16 530.23-3.31Q532.37-5.45 532.49-8.47L532.49-8.47ZM532.84-81.23L532.84-72.75L532.49-72.75Q532.37-75.77 530.23-77.92Q528.08-80.07 525.06-80.07L525.06-80.07Q525.06-80.07 524.31-80.07Q523.56-80.07 523.56-80.07L523.56-80.07L523.56-81.23L532.84-81.23ZM556.28-72.75L555.93-72.75L555.93-81.23L565.21-81.23L565.21-80.07Q565.10-80.07 564.40-80.07Q563.70-80.07 563.70-80.07L563.70-80.07Q560.69-80.07 558.54-77.92Q556.39-75.77 556.28-72.75L556.28-72.75ZM633.33-54.30L643.42-84.01L683.57-0.70L655.72-0.70L633.33-54.30ZM609.31-8.47L618.47-8.47Q617.43-6.15 618.01-4.53Q618.59-2.90 620.04-2.03Q621.49-1.16 622.88-1.16L622.88-1.16L623.93-1.16L623.93 0L598.05 0L598.05-1.16Q598.05-1.16 598.57-1.16Q599.10-1.16 599.10-1.16L599.10-1.16Q601.76-1.16 604.61-2.84Q607.45-4.53 609.31-8.47L609.31-8.47ZM642.38-84.01L643.42-84.01L643.42-65.91L614.88-0.35L605.48-0.35L635.76-66.72Q636.34-67.77 637.33-70.03Q638.32-72.29 639.42-74.96Q640.52-77.63 641.39-80.07Q642.26-82.50 642.38-84.01L642.38-84.01ZM620.10-25.06L652.94-25.06L652.94-19.26L620.10-19.26L620.10-25.06ZM652.36-8.47L652.36-8.47L679.74-8.47Q681.71-4.53 684.50-2.84Q687.28-1.16 689.95-1.16L689.95-1.16Q689.95-1.16 690.42-1.16Q690.88-1.16 690.88-1.16L690.88-1.16L690.88 0L646.90 0L646.90-1.16L647.95-1.16Q650.27-1.16 652.07-3.07Q653.86-4.99 652.36-8.47ZM727.32-82.85L727.32-82.85Q729.87-82.85 734.16-82.62Q738.45-82.39 743.10-81.98Q747.74-81.57 751.22-81.17Q754.70-80.76 755.74-80.30L755.74-80.30L753.42-62.78L752.26-62.78Q752.26-69.16 747.33-73.10Q742.40-77.05 733.81-77.05L733.81-77.05Q726.74-77.05 722.56-74.32Q718.38-71.59 718.03-67.30L718.03-67.30Q717.68-63.12 720.88-60.80Q724.07-58.48 728.36-56.51L728.36-56.51L750.06-46.41Q756.56-43.51 760.27-37.94Q763.98-32.37 763.40-23.90L763.40-23.90Q762.59-11.49 753.02-4.93Q743.44 1.62 726.97 1.62L726.97 1.62Q720.24 1.62 714.78 0.58Q709.33-0.46 705.44-2.15Q701.56-3.83 699.47-5.92L699.47-5.92Q698.19-8.82 698.42-13.00Q698.65-17.17 699.99-21.29Q701.32-25.41 703.18-27.85L703.18-27.85L704.22-27.85Q703.88-21.81 706.78-16.36Q709.68-10.91 715.48-7.54Q721.28-4.18 729.40-4.18L729.40-4.18Q737.76-4.18 741.76-7.66Q745.77-11.14 745.77-15.55L745.77-15.55Q745.77-19.26 742.92-22.28Q740.08-25.30 733.47-28.31L733.47-28.31L714.55-37.13Q706.54-40.84 702.89-47.34Q699.23-53.84 700.28-62.08L700.28-62.08Q701.09-68.81 704.57-73.45Q708.05-78.09 713.80-80.47Q719.54-82.85 727.32-82.85ZM738.80-81.69L755.98-81.69L755.63-79.25L738.80-79.25L738.80-81.69Z"/></g>
  <path d="M370 167.95557479611082h290.224139264081M839.775860735919 167.95557479611082h290.224139264081" stroke="#FFF8E7" stroke-width="3"/></svg>